<svg width="30" height="30" viewBox="0 0 30 30" fill="none" xmlns="http://www.w3.org/2000/svg">
<path d="M17.75 12.5C18.3023 12.5 18.75 12.9477 18.75 13.5V21.5C18.75 22.0523 18.3023 22.5 17.75 22.5H17.25C16.6977 22.5 16.25 22.0523 16.25 21.5V13.5C16.25 12.9477 16.6977 12.5 17.25 12.5H17.75Z" fill="#D61C4E"/>
<path d="M12.75 22.5C13.3023 22.5 13.75 22.0523 13.75 21.5V13.5C13.75 12.9477 13.3023 12.5 12.75 12.5H12.25C11.6977 12.5 11.25 12.9477 11.25 13.5L11.25 21.5C11.25 22.0523 11.6977 22.5 12.25 22.5H12.75Z" fill="#D61C4E"/>
<path fill-rule="evenodd" clip-rule="evenodd" d="M21.25 3.5C21.25 2.94772 20.8023 2.5 20.25 2.5H9.75C9.19772 2.5 8.75 2.94772 8.75 3.5V7.5H4.75C4.19772 7.5 3.75 7.94772 3.75 8.5V9C3.75 9.55228 4.19772 10 4.75 10H6.25V26.5C6.25 27.0523 6.69772 27.5 7.25 27.5H22.75C23.3023 27.5 23.75 27.0523 23.75 26.5V10H25.25C25.8023 10 26.25 9.55228 26.25 9V8.5C26.25 7.94772 25.8023 7.5 25.25 7.5H21.25V3.5ZM18.75 7.5V5H11.25V7.5H18.75ZM8.75 10V24C8.75 24.5523 9.19772 25 9.75 25H20.25C20.8023 25 21.25 24.5523 21.25 24V10H8.75Z" fill="#D61C4E"/>
</svg>
